<?xml version="1.0" encoding="UTF-8" standalone="no"?>
<svg width="323px" height="67px" viewBox="0 0 323 67" version="1.1" xmlns="http://www.w3.org/2000/svg" xmlns:xlink="http://www.w3.org/1999/xlink" xmlns:sketch="http://www.bohemiancoding.com/sketch/ns">
    <!-- Generator: Sketch 3.4 (15575) - http://www.bohemiancoding.com/sketch -->
    <title>futpong-logo</title>
    <desc>Created with Sketch.</desc>
    <defs>
        <radialGradient cx="19.0812211%" cy="40.9293373%" fx="19.0812211%" fy="40.9293373%" r="63.3908%" id="radialGradient-1">
            <stop stop-color="#FFFFFF" offset="0%"></stop>
            <stop stop-color="#ED1C24" offset="100%"></stop>
        </radialGradient>
    </defs>
    <g id="Page-1" stroke="none" stroke-width="1" fill="none" fill-rule="evenodd" sketch:type="MSPage">
        <g id="Desktop-HD" sketch:type="MSArtboardGroup" transform="translate(-205.000000, -67.000000)">
            <g id="futpong-logo" sketch:type="MSLayerGroup" transform="translate(214.000000, 75.000000)">
                <g id="futpong-net_logo_line" sketch:type="MSShapeGroup">
                    <g id="Layer_1">
                        <g id="Group" transform="translate(39.132075, 2.878788)" fill="#FFFFFF">
                            <path d="M12.4301887,15.6606061 L12.4301887,34.9484848 L4.9490566,34.9484848 L4.9490566,15.6606061 L0.345283019,15.6606061 L0.345283019,10.0181818 L4.9490566,10.0181818 L5.00660377,8.06060606 C5.00660377,6.73636364 5.12169811,5.64242424 5.29433962,4.77878788 C5.5245283,3.97272727 5.98490566,3.16666667 6.73301887,2.41818182 C7.48113208,1.66969697 8.28679245,1.20909091 9.15,0.978787879 C9.95566038,0.748484848 11.0490566,0.690909091 12.3150943,0.690909091 L19.1632075,0.690909091 L19.1632075,6.56363636 L15.7679245,6.56363636 C15.1349057,6.56363636 14.6169811,6.62121212 14.3292453,6.67878788 C14.0415094,6.73636364 13.6962264,6.90909091 13.3509434,7.13939394 C12.7179245,7.65757576 12.4301887,8.17575758 12.4301887,9.5 L12.4301887,10.0181818 L19.1632075,10.0181818 L19.1632075,15.6606061 L12.4301887,15.6606061 L12.4301887,15.6606061 Z" id="Shape"></path>
                            <path d="M31.9386792,25.1030303 C30.4424528,25.1030303 29.1764151,24.930303 28.140566,24.6424242 C27.104717,24.2969697 26.1264151,23.6636364 25.2632075,22.7424242 C23.8820755,21.1878788 23.1915094,19.7484848 23.1915094,17.6757576 L23.1915094,0.633333333 L30.6150943,0.633333333 L30.6150943,16.4090909 C30.6150943,17.2151515 30.9028302,17.7909091 31.4207547,18.3090909 C31.8811321,18.7121212 32.3990566,18.9424242 33.1471698,18.9424242 L38.6716981,18.9424242 L38.6716981,0.633333333 L46.1528302,0.633333333 L46.1528302,25.1030303 L31.9386792,25.1030303 L31.9386792,25.1030303 Z" id="Shape"></path>
                            <path d="M62.8415094,6.50606061 L62.8415094,24.9878788 L55.3603774,24.9878788 L55.3603774,6.50606061 L50.0084906,6.50606061 L50.0084906,0.633333333 L68.5386792,0.633333333 L68.5386792,6.50606061 L62.8415094,6.50606061 L62.8415094,6.50606061 Z" id="Shape"></path>
                            <path d="M96.8518868,12.8393939 C96.8518868,15.4878788 96.3915094,17.6757576 95.4132075,19.5181818 C93.3415094,23.5484848 89.4283019,25.0454545 85.1122642,25.0454545 L78.609434,25.0454545 L78.609434,34.7757576 L71.1858491,34.7757576 L71.1858491,0.633333333 L85.1122642,0.633333333 C89.4283019,0.633333333 93.3415094,2.18787879 95.4132075,6.16060606 C96.3339623,8.0030303 96.7943396,10.2484848 96.8518868,12.8393939 L96.8518868,12.8393939 L96.8518868,12.8393939 Z M89.0830189,12.8393939 C89.0830189,10.7666667 88.6226415,9.32727273 87.7018868,8.29090909 C86.7811321,7.31212121 85.6301887,6.85151515 84.1915094,6.85151515 L78.6669811,6.85151515 L78.6669811,18.8848485 L84.1915094,18.8272727 C85.6301887,18.8272727 86.8386792,18.3666667 87.7018868,17.330303 C88.5650943,16.4090909 89.0254717,14.9121212 89.0830189,12.8393939 L89.0830189,12.8393939 L89.0830189,12.8393939 Z" id="Shape"></path>
                            <path d="M124.474528,19.7484848 C122.115094,24.0090909 117.683962,25.5636364 113.022642,25.6212121 C108.418868,25.6212121 103.930189,24.0666667 101.570755,19.8060606 C100.534906,17.9060606 100.016981,15.5454545 100.016981,12.8393939 C100.016981,10.1333333 100.534906,7.83030303 101.570755,5.93030303 C103.930189,1.66969697 108.361321,0.115151515 113.022642,0.115151515 C117.626415,0.115151515 122.115094,1.66969697 124.474528,5.87272727 C125.510377,7.77272727 126.028302,10.1333333 126.028302,12.8393939 C126.028302,15.5454545 125.510377,17.8484848 124.474528,19.7484848 L124.474528,19.7484848 Z M117.108491,7.83030303 C116.360377,6.73636364 115.036792,6.16060606 113.022642,6.16060606 C111.641509,6.16060606 110.60566,6.44848485 109.857547,6.90909091 C109.109434,7.42727273 108.591509,8.17575758 108.303774,9.15454545 C108.016038,10.1333333 107.843396,11.3424242 107.843396,12.8393939 C107.843396,14.3363636 107.958491,15.5454545 108.303774,16.5242424 C108.591509,17.5030303 109.109434,18.2515152 109.915094,18.7121212 C110.663208,19.230303 111.699057,19.5181818 113.080189,19.5181818 C115.09434,19.5181818 116.417925,18.9424242 117.166038,17.9060606 C117.914151,16.8121212 118.316981,15.0848485 118.316981,12.7818182 C118.201887,10.5939394 117.856604,8.86666667 117.108491,7.83030303 L117.108491,7.83030303 Z" id="Shape"></path>
                            <path d="M144.788679,25.1030303 L144.788679,9.32727273 C144.788679,8.52121212 144.500943,7.94545455 143.983019,7.48484848 C143.522642,7.08181818 143.004717,6.85151515 142.256604,6.85151515 L136.732075,6.85151515 L136.732075,25.0454545 L129.308491,25.0454545 L129.308491,0.633333333 L143.465094,0.633333333 C144.961321,0.633333333 146.227358,0.806060606 147.263208,1.20909091 C148.299057,1.55454545 149.277358,2.18787879 150.140566,3.05151515 C151.579245,4.60606061 152.212264,6.04545455 152.212264,8.17575758 L152.212264,25.1030303 L144.788679,25.1030303 L144.788679,25.1030303 Z" id="Shape"></path>
                            <path d="M178.741509,32.4727273 C177.072642,34.0272727 174.943396,34.8333333 172.353774,34.8333333 L158.369811,34.8333333 L158.369811,28.9606061 L171.087736,28.9606061 C172.066038,28.9606061 172.814151,28.6727273 173.274528,28.1545455 C173.677358,27.6939394 173.907547,26.830303 173.907547,25.5060606 L173.907547,25.1030303 L167.462264,25.1030303 C163.779245,25.1030303 160.84434,24.0666667 158.830189,21.9363636 C156.758491,19.8636364 155.722642,16.8121212 155.665094,12.8969697 C155.665094,8.98181818 156.700943,5.93030303 158.830189,3.8 C160.901887,1.72727273 163.779245,0.633333333 167.462264,0.633333333 L181.331132,0.633333333 L181.388679,24.9878788 L181.388679,25.6212121 C181.388679,28.5 180.525472,30.7454545 178.741509,32.4727273 L178.741509,32.4727273 Z M173.907547,6.85151515 L168.383019,6.85151515 C166.94434,6.85151515 165.735849,7.31212121 164.872642,8.34848485 C163.951887,9.32727273 163.491509,10.7666667 163.433962,12.8393939 C163.433962,14.9121212 163.89434,16.3515152 164.815094,17.4454545 C165.735849,18.4242424 166.886792,18.8848485 168.325472,18.8848485 L173.85,18.8848485 L173.85,6.85151515 L173.907547,6.85151515 Z" id="Shape"></path>
                            <path d="M185.014151,25.1606061 L185.014151,19.3454545 L192.034906,19.3454545 L192.034906,25.1606061 L185.014151,25.1606061 L185.014151,25.1606061 Z" id="Shape"></path>
                            <path d="M211.140566,25.1030303 L211.140566,9.32727273 C211.140566,8.52121212 210.85283,7.94545455 210.334906,7.48484848 C209.874528,7.08181818 209.356604,6.85151515 208.608491,6.85151515 L203.083962,6.85151515 L203.083962,25.0454545 L195.660377,25.0454545 L195.660377,0.633333333 L209.816981,0.633333333 C211.313208,0.633333333 212.579245,0.806060606 213.615094,1.20909091 C214.650943,1.55454545 215.629245,2.18787879 216.492453,3.05151515 C217.931132,4.60606061 218.564151,6.04545455 218.564151,8.17575758 L218.564151,25.1030303 L211.140566,25.1030303 L211.140566,25.1030303 Z" id="Shape"></path>
                            <path d="M233.814151,25.1030303 C230.131132,25.1030303 227.196226,24.0666667 225.182075,21.9363636 C223.110377,19.8636364 222.074528,16.8121212 222.016981,12.8969697 C222.016981,8.98181818 223.05283,5.93030303 225.182075,3.8 C227.253774,1.72727273 230.131132,0.633333333 233.756604,0.633333333 L243.712264,0.633333333 L243.712264,6.50606061 L234.792453,6.50606061 C233.526415,6.50606061 232.433019,6.90909091 231.512264,7.65757576 C230.879245,8.17575758 230.418868,9.03939394 229.958491,10.0757576 L243.769811,10.0757576 L243.769811,15.7181818 L230.016038,15.6606061 C230.476415,16.6969697 230.879245,17.5606061 231.569811,18.0787879 C232.433019,18.8272727 233.526415,19.230303 234.85,19.230303 L243.827358,19.230303 L243.827358,25.1030303 L233.814151,25.1030303 L233.814151,25.1030303 Z" id="Shape"></path>
                            <path d="M259.940566,6.50606061 L259.940566,24.9878788 L252.459434,24.9878788 L252.459434,6.50606061 L247.107547,6.50606061 L247.107547,0.633333333 L265.637736,0.633333333 L265.637736,6.50606061 L259.940566,6.50606061 L259.940566,6.50606061 Z" id="Shape"></path>
                        </g>
                        <g id="Group">
                            <ellipse id="Oval" fill="#ED1C24" cx="16.8613208" cy="16.9272727" rx="16.3433962" ry="16.5242424"></ellipse>
                            <path d="M0.978301887,15.9484848 C0.978301887,7.94545455 7.42358491,1.43939394 15.3650943,1.43939394 L15.3650943,8.06060606 C14.9622642,12.3212121 12.4301887,14.6818182 7.59622642,15.8909091 L0.978301887,15.8909091 L0.978301887,15.9484848 Z" id="Shape" fill="url(#radialGradient-1)"></path>
                        </g>
                    </g>
                </g>
                <text id="Play-It.-Share-It.-M" sketch:type="MSTextLayer" font-family="Avenir Next" font-size="14" font-weight="526" letter-spacing="1" fill="#FFFFFF">
                    <tspan x="44" y="55">Play It. Share It. Master It</tspan>
                    <tspan x="230.718" y="55">.</tspan>
                </text>
            </g>
        </g>
    </g>
</svg>