<?xml version="1.0" standalone="no"?>
<!DOCTYPE svg PUBLIC "-//W3C//DTD SVG 20010904//EN"
 "http://www.w3.org/TR/2001/REC-SVG-20010904/DTD/svg10.dtd">
<svg version="1.0" xmlns="http://www.w3.org/2000/svg"
 width="792.000000pt" height="792.000000pt" viewBox="0 0 792.000000 792.000000"
 preserveAspectRatio="xMidYMid meet">
<metadata>
Created by potrace 1.11, written by Peter Selinger 2001-2013
</metadata>
<g transform="translate(0.000000,792.000000) scale(0.100000,-0.100000)"
fill="#000000" stroke="none">
<path d="M0 4744 l0 -3176 111 158 c187 268 317 421 565 665 234 230 329 311
539 461 250 178 332 229 550 345 127 69 140 74 150 57 36 -63 80 -93 277 -192
249 -124 491 -262 535 -304 53 -51 47 -85 -35 -210 -206 -313 -345 -646 -497
-1192 -79 -284 -86 -295 -280 -382 -208 -93 -422 -225 -667 -411 l-136 -104
-219 72 c-250 82 -518 181 -711 263 -74 31 -138 56 -143 56 -16 0 -10 -57 8
-79 30 -35 444 -201 788 -315 94 -31 176 -59 184 -61 9 -4 -27 -47 -107 -128
-145 -146 -232 -240 -227 -246 2 -2 113 82 247 186 341 266 386 300 581 427
421 276 586 346 749 316 101 -18 263 -102 503 -261 110 -73 256 -166 325 -207
69 -41 269 -166 446 -278 l321 -204 76 0 76 0 133 83 c198 125 479 289 893
522 204 115 442 250 529 301 162 95 215 114 273 100 77 -19 864 -496 965 -586
26 -22 49 -40 52 -40 3 0 84 -59 179 -131 156 -119 314 -215 340 -206 14 4
-114 119 -276 250 -76 61 -134 114 -130 117 5 4 60 24 123 45 279 91 766 284
788 312 14 20 16 83 2 83 -6 0 -54 -18 -108 -41 -191 -80 -491 -192 -699 -262
l-213 -70 -57 41 c-272 195 -609 405 -824 512 -173 87 -178 94 -238 317 -151
555 -311 916 -540 1216 -103 134 -111 147 -111 184 0 48 39 79 223 176 179 94
356 196 425 246 38 28 42 35 42 75 0 47 -13 69 -84 144 -22 23 -38 42 -34 42
16 0 262 -107 370 -161 339 -169 642 -369 923 -609 304 -260 663 -677 877
-1019 44 -69 81 -127 84 -130 2 -2 4 1439 4 3202 l0 3207 -3960 0 -3960 0 0
-3176z m4911 874 c91 -34 160 -87 208 -159 55 -82 72 -143 78 -274 12 -274
-95 -439 -332 -511 -83 -25 -277 -25 -360 0 -87 26 -149 62 -204 121 -87 92
-123 195 -124 355 0 159 38 271 123 360 101 106 208 142 410 137 114 -3 145
-8 201 -29z m-3751 -103 l0 -115 -77 0 c-134 0 -183 -26 -183 -97 l0 -33 130
0 130 0 0 -115 0 -115 -130 0 -130 0 0 -375 0 -375 -150 0 -150 0 0 375 0 375
-90 0 -90 0 0 115 0 115 90 0 90 0 0 83 c0 106 13 149 58 199 64 71 90 78 310
78 l192 0 0 -115z m412 -210 l3 -325 28 -27 c27 -27 31 -28 152 -32 l125 -3 0
356 0 356 150 0 150 0 0 -481 0 -481 -337 4 c-330 3 -339 4 -390 27 -61 27
-126 93 -156 159 -21 45 -22 63 -25 410 l-3 362 150 0 150 0 3 -325z m1448
205 l0 -120 -110 0 -110 0 0 -360 0 -360 -150 0 -150 0 0 360 0 360 -105 0
-105 0 0 120 0 120 365 0 365 0 0 -120z m795 106 c188 -50 291 -186 310 -412
14 -160 -30 -306 -121 -404 -90 -97 -202 -130 -441 -130 l-153 0 0 -190 0
-190 -150 0 -150 0 0 670 0 670 328 0 c241 0 340 -4 377 -14z m2251 -18 c27
-14 67 -45 88 -68 72 -80 71 -73 74 -487 l3 -373 -150 0 -150 0 -3 331 -3 331
-28 24 c-26 23 -35 24 -153 24 l-124 0 0 -355 0 -355 -150 0 -150 0 0 480 0
481 348 -3 347 -3 51 -27z m1304 -466 c0 -524 -4 -581 -45 -662 -29 -57 -101
-125 -163 -153 -45 -21 -64 -22 -374 -25 l-328 -3 0 120 0 121 265 0 c175 0
272 4 289 11 25 12 40 40 50 97 l6 32 -148 0 c-236 0 -332 25 -427 112 -189
172 -194 567 -9 737 47 44 125 87 181 100 21 5 188 9 371 10 l332 1 0 -498z
m-3094 -1392 c404 -32 593 -64 947 -161 98 -27 180 -49 181 -49 14 0 122 -96
154 -136 73 -93 88 -143 55 -183 -10 -11 -88 -59 -173 -107 -199 -111 -397
-241 -432 -283 -40 -47 -36 -76 24 -162 275 -392 418 -696 553 -1173 52 -185
98 -390 87 -394 -27 -9 -421 -239 -627 -367 -132 -82 -364 -223 -515 -315
-315 -190 -392 -239 -507 -322 l-83 -59 -82 59 c-116 84 -284 192 -563 362
-132 81 -337 207 -455 280 -118 73 -300 182 -405 241 -104 60 -197 112 -205
117 -12 7 -11 24 9 118 32 150 119 452 176 609 128 353 367 780 469 840 79 46
373 116 636 152 105 14 202 18 440 18 319 0 424 -8 704 -51 187 -28 196 -29
196 -10 0 17 -49 34 -215 76 -223 56 -373 73 -635 74 -209 0 -271 -4 -555 -37
-176 -21 -378 -47 -450 -58 -161 -26 -194 -20 -350 61 -212 110 -559 320 -597
360 -65 68 -59 78 96 143 450 190 1007 323 1496 356 182 12 478 13 626 1z"/>
<path d="M4604 5399 c-81 -23 -120 -123 -112 -284 9 -162 58 -215 201 -215 89
0 130 22 163 88 43 85 39 275 -7 351 -36 60 -150 88 -245 60z"/>
<path d="M3420 5155 l0 -225 130 0 c139 0 165 6 207 52 36 39 54 94 54 172 1
79 -17 134 -54 175 -39 42 -77 51 -212 51 l-125 0 0 -225z"/>
<path d="M6773 5361 c-26 -12 -52 -35 -70 -62 -26 -40 -28 -50 -28 -143 0
-124 16 -164 83 -203 41 -24 56 -27 178 -31 l134 -5 0 232 0 231 -127 0 c-104
0 -136 -4 -170 -19z"/>
</g>
</svg>
